Coordinates
version=1
nRows=13
nColumns=33
inDegrees=yes

Units are S.I. units (second, meters, Newtons, ...)
Angles are in degrees.

endheader
time	ground_thorax_rot_x	ground_thorax_rot_y	ground_thorax_rot_z	ground_thorax_tx	ground_thorax_ty	ground_thorax_tz	clav_prot_r	clav_elev_r	scapula_abduction_r	scapula_elevation_r	scapula_upward_rot_r	scapula_winging_r	shoulder_elv_r	plane_of_elev_r	axial_rot_r	elbow_flexion_r	pro_sup_r	wrist_flex_r	wrist_dev_r	clav_prot_l	clav_elev_l	scapula_abduction_l	scapula_elevation_l	scapula_upward_rot_l	scapula_winging_l	shoulder_elv_l	plane_of_elev_l	axial_rot_l	elbow_flexion_l	pro_sup_l	wrist_flex_l	wrist_dev_l	
4.8300	-32.617648	-25.568340	32.742693	-99.940696	855.484196	-46.291076	27.292019	-45.000000	40.274342	-45.000000	-45.000000	249.937544	3317.059678	20.680893	-143.090359	2877.813414	153.252160	13.888754	14.883487	-4.293757	38.520469	-34.577875	-45.000000	-22.363742	5141.282635	-3343.096264	143.241766	180.000000	2878.782171	-316.524789	11.685846	-25.000000	
4.8400	-32.522918	-25.641153	32.925455	-99.720348	854.886060	-46.265853	27.221786	-45.000000	40.221709	-45.000000	-45.000000	249.950506	3317.051889	20.648146	-142.997795	2877.775099	153.363615	14.050991	14.910025	-4.243659	38.538668	-34.478645	-45.000000	-22.537042	5141.143083	-3343.090634	143.276950	180.000000	2878.838396	-316.524579	11.576523	-25.000000	
4.8500	-32.428425	-25.713230	33.097829	-99.486803	854.291324	-46.241933	27.140397	-45.000000	40.176809	-45.000000	-45.000000	249.959641	3317.047078	20.619508	-142.887308	2877.734673	153.487015	14.219443	14.951417	-4.169257	38.575441	-34.377088	-45.000000	-22.679442	5140.996000	-3343.082130	143.337882	180.000000	2878.909236	-316.507382	11.495205	-25.000000	
4.8600	-32.322104	-25.790409	33.283167	-99.223512	853.700128	-46.224367	27.104287	-45.000000	40.138246	-45.000000	-45.000000	249.966013	3317.037673	20.600929	-142.834883	2877.710456	153.631081	14.376454	14.965657	-4.124763	38.580153	-34.282575	-45.000000	-22.879196	5140.863451	-3343.090597	143.363260	180.000000	2878.988823	-316.463199	11.379590	-25.000000	
4.8700	-32.216371	-25.863874	33.460274	-98.929449	853.117826	-46.211342	27.090498	-45.000000	40.111808	-45.000000	-45.000000	249.967323	3317.015959	20.587623	-142.813650	2877.691404	153.792742	14.519904	14.955569	-4.100366	38.560018	-34.202126	-45.000000	-23.090290	5140.751222	-3343.113122	143.365197	180.000000	2879.076056	-316.394434	11.242323	-25.000000	
4.8800	-32.110513	-25.942582	33.637170	-98.600716	852.550302	-46.202592	27.093464	-45.000000	40.096102	-45.000000	-45.000000	249.968984	3316.990125	20.573819	-142.824364	2877.680145	153.962806	14.659486	14.946319	-4.078066	38.542835	-34.128212	-45.000000	-23.296265	5140.643191	-3343.133223	143.362827	180.000000	2879.179252	-316.298371	11.107095	-25.000000	
4.8900	-32.014122	-26.018966	33.790647	-98.236060	852.004759	-46.197365	27.106035	-45.000000	40.097009	-45.000000	-45.000000	249.967815	3316.945359	20.563730	-142.854845	2877.667004	154.128697	14.777727	14.909857	-4.076584	38.501082	-34.071852	-45.000000	-23.482736	5140.563530	-3343.163323	143.342233	180.000000	2879.287565	-316.187421	10.953349	-25.000000	
4.9000	-31.918844	-26.111445	33.941960	-97.833919	851.488728	-46.195783	27.115504	-45.000000	40.109294	-45.000000	-45.000000	249.978398	3316.906357	20.543986	-142.900116	2877.658156	154.269934	14.895966	14.902065	-4.061020	38.493829	-34.015785	-45.000000	-23.626283	5140.478682	-3343.178576	143.342541	180.000000	2879.410891	-316.061658	10.828752	-25.000000	
4.9100	-31.834146	-26.202875	34.068508	-97.389596	851.008359	-46.199719	27.130804	-45.000000	40.136291	-45.000000	-45.000000	249.987399	3316.851978	20.529301	-142.958209	2877.642500	154.375073	14.984901	14.872485	-4.068646	38.463605	-33.975029	-45.000000	-23.734056	5140.418519	-3343.202830	143.328434	180.000000	2879.533274	-315.935330	10.693493	-25.000000	
4.9200	-31.744665	-26.310686	34.199387	-96.895929	850.568606	-46.212016	27.148563	-45.000000	40.173361	-45.000000	-45.000000	250.006464	3316.804981	20.511092	-143.031490	2877.632748	154.429785	15.067495	14.862853	-4.070686	38.459475	-33.925189	-45.000000	-23.803532	5140.346279	-3343.213482	143.327266	180.000000	2879.664847	-315.806159	10.585456	-25.000000	
4.9300	-31.655743	-26.421382	34.318897	-96.343729	850.172417	-46.235709	27.182911	-45.000000	40.215369	-45.000000	-45.000000	250.017648	3316.748001	20.513782	-143.114574	2877.619142	154.433056	15.114376	14.818571	-4.104694	38.417039	-33.874708	-45.000000	-23.844850	5140.289116	-3343.229838	143.305658	180.000000	2879.793947	-315.685994	10.466402	-25.000000	
4.9400	-31.558207	-26.547404	34.452973	-95.723259	849.820910	-46.273119	27.225846	-45.000000	40.251471	-45.000000	-45.000000	250.038304	3316.706236	20.522907	-143.210938	2877.611538	154.381737	15.156083	14.796458	-4.133890	38.399238	-33.828304	-45.000000	-23.856965	5140.226347	-3343.237170	143.299144	180.000000	2879.933095	-315.568016	10.378532	-25.000000	
4.9500	-31.465136	-26.669759	34.579742	-95.024931	849.512733	-46.325131	27.280074	-45.000000	40.278751	-45.000000	-45.000000	250.055440	3316.659368	20.554706	-143.319009	2877.596507	154.284142	15.171366	14.753478	-4.182556	38.355325	-33.808737	-45.000000	-23.846178	5140.190183	-3343.254800	143.280251	180.000000	2880.073945	-315.460322	10.288905	-25.000000	
